{
  "accessors": [
    {
      "bufferView": 2,
      "componentType": 5126,
      "count": 900,
      "max": [
        1.0090869665145874,
        0.27717098593711853,
        0.39897701144218445
      ],
      "min": [
        -0.9983980059623718,
        -0.26329800486564636,
        -0.3054310083389282
      ],
      "type": "VEC3"
    },
    {
      "bufferView": 2,
      "byteOffset": 10800,
      "componentType": 5126,
      "count": 900,
      "max": [
        0.9967972040176392,
        0.9995406866073608,
        0.997545599937439
      ],
      "min": [
        -0.999565839767456,
        -0.9960911273956299,
        -0.9987421035766602
      ],
      "type": "VEC3"
    },
    {
      "bufferView": 1,
      "componentType": 5126,
      "count": 900,
      "max": [
        0.9997230768203735,
        0.999095618724823
      ],
      "min": [
        0.00036720596835948527,
        0.0009898473508656025
      ],
      "type": "VEC2"
    },
    {
      "bufferView": 0,
      "componentType": 5125,
      "count": 906,
      "type": "SCALAR"
    },
    {
      "bufferView": 2,
      "byteOffset": 21600,
      "componentType": 5126,
      "count": 1656,
      "max": [
        1.0127100944519043,
        0.2816612422466278,
        0.40282851457595825
      ],
      "min": [
        -1.0013982057571411,
        -0.26737022399902344,
        -0.3097303509712219
      ],
      "type": "VEC3"
    },
    {
      "bufferView": 2,
      "byteOffset": 41472,
      "componentType": 5126,
      "count": 1656,
      "max": [
        0.9989122748374939,
        0.997877299785614,
        0.9987539649009705
      ],
      "min": [
        -0.9998741149902344,
        -0.9987215399742126,
        -0.9976166486740112
      ],
      "type": "VEC3"
    },
    {
      "bufferView": 1,
      "byteOffset": 7200,
      "componentType": 5126,
      "count": 1656,
      "max": [
        0.9986730217933655,
        0.9964330196380615
      ],
      "min": [
        0.0025820001028478146,
        0.003077999921515584
      ],
      "type": "VEC2"
    },
    {
      "bufferView": 0,
      "byteOffset": 3624,
      "componentType": 5125,
      "count": 10872,
      "type": "SCALAR"
    },
    {
      "bufferView": 2,
      "byteOffset": 61344,
      "componentType": 5126,
      "count": 51590,
      "max": [
        0.24197962880134583,
        3.0846993923187256,
        0.22213615477085114
      ],
      "min": [
        -7.461561679840088,
        -0.3711179792881012,
        -2.2327911853790283
      ],
      "type": "VEC3"
    },
    {
      "bufferView": 2,
      "byteOffset": 680424,
      "componentType": 5126,
      "count": 51590,
      "max": [
        0.9999992847442627,
        1.0,
        1.0
      ],
      "min": [
        -0.9999992847442627,
        -1.0,
        -1.0
      ],
      "type": "VEC3"
    },
    {
      "bufferView": 1,
      "byteOffset": 20448,
      "componentType": 5126,
      "count": 51590,
      "max": [
        0.9988495111465454,
        0.9994271397590637
      ],
      "min": [
        0.00018440274288877845,
        0.0009517417056486011
      ],
      "type": "VEC2"
    },
    {
      "bufferView": 0,
      "byteOffset": 47112,
      "componentType": 5125,
      "count": 151776,
      "type": "SCALAR"
    },
    {
      "bufferView": 2,
      "byteOffset": 1299504,
      "componentType": 5126,
      "count": 900,
      "max": [
        1.5228025913238525,
        0.4008530378341675,
        0.4288204312324524
      ],
      "min": [
        -0.05795976147055626,
        -0.03501739725470543,
        -0.09285737574100494
      ],
      "type": "VEC3"
    },
    {
      "bufferView": 2,
      "byteOffset": 1310304,
      "componentType": 5126,
      "count": 900,
      "max": [
        0.9871965646743774,
        0.9995851516723633,
        0.9995665550231934
      ],
      "min": [
        -0.997545599937439,
        -0.9969314932823181,
        -0.9967964887619019
      ],
      "type": "VEC3"
    },
    {
      "bufferView": 1,
      "byteOffset": 433168,
      "componentType": 5126,
      "count": 900,
      "max": [
        0.9997230768203735,
        0.999095618724823
      ],
      "min": [
        0.00036720596835948527,
        0.0009898473508656025
      ],
      "type": "VEC2"
    },
    {
      "bufferView": 0,
      "byteOffset": 654216,
      "componentType": 5125,
      "count": 906,
      "type": "SCALAR"
    }
  ],
  "asset": {
    "extras": {
      "author": "addude04 (https://sketchfab.com/addude04)",
      "license": "CC-BY-NC-SA-4.0 (http://creativecommons.org/licenses/by-nc-sa/4.0/)",
      "source": "https://sketchfab.com/3d-models/neon-party-rtj4d-remix-challenge-b26c6e3236f546c89610dbc42f56bc72",
      "title": "Neon Party - #RTJ4D - Remix Challenge"
    },
    "generator": "Sketchfab-12.66.0",
    "version": "2.0"
  },
  "bufferViews": [
    {
      "buffer": 0,
      "byteLength": 657840,
      "name": "floatBufferViews",
      "target": 34963
    },
    {
      "buffer": 0,
      "byteLength": 440368,
      "byteOffset": 657840,
      "byteStride": 8,
      "name": "floatBufferViews",
      "target": 34962
    },
    {
      "buffer": 0,
      "byteLength": 1321104,
      "byteOffset": 1098208,
      "byteStride": 12,
      "name": "floatBufferViews",
      "target": 34962
    }
  ],
  "buffers": [
    {
      "byteLength": 2419312,
      "uri": "scene.bin"
    }
  ],
  "images": [
    {
      "uri": "textures/hand_inside_baseColor.png"
    }
  ],
  "materials": [
    {
      "doubleSided": true,
      "emissiveFactor": [
        1.0,
        1.0,
        1.0
      ],
      "emissiveTexture": {
        "index": 0
      },
      "name": "hand_inside",
      "pbrMetallicRoughness": {
        "baseColorTexture": {
          "index": 0
        }
      }
    },
    {
      "doubleSided": true,
      "name": "hand_wire",
      "pbrMetallicRoughness": {
        "baseColorFactor": [
          0.0,
          0.0,
          0.0,
          1.0
        ],
        "roughnessFactor": 0.0
      }
    },
    {
      "doubleSided": true,
      "name": "chain",
      "pbrMetallicRoughness": {
        "baseColorFactor": [
          0.8,
          0.38303,
          0.0387921,
          1.0
        ],
        "roughnessFactor": 0.175
      }
    }
  ],
  "meshes": [
    {
      "name": "Object_0",
      "primitives": [
        {
          "attributes": {
            "NORMAL": 1,
            "POSITION": 0,
            "TEXCOORD_0": 2
          },
          "indices": 3,
          "material": 0,
          "mode": 4
        }
      ]
    },
    {
      "name": "Object_1",
      "primitives": [
        {
          "attributes": {
            "NORMAL": 5,
            "POSITION": 4,
            "TEXCOORD_0": 6
          },
          "indices": 7,
          "material": 1,
          "mode": 4
        }
      ]
    },
    {
      "name": "Object_2",
      "primitives": [
        {
          "attributes": {
            "NORMAL": 9,
            "POSITION": 8,
            "TEXCOORD_0": 10
          },
          "indices": 11,
          "material": 2,
          "mode": 4
        }
      ]
    },
    {
      "name": "Object_3",
      "primitives": [
        {
          "attributes": {
            "NORMAL": 13,
            "POSITION": 12,
            "TEXCOORD_0": 14
          },
          "indices": 15,
          "material": 2,
          "mode": 4
        }
      ]
    }
  ],
  "nodes": [
    {
      "children": [
        1
      ],
      "matrix": [
        1.0,
        0.0,
        0.0,
        0.0,
        0.0,
        2.220446049250313e-16,
        -1.0,
        0.0,
        0.0,
        1.0,
        2.220446049250313e-16,
        0.0,
        0.0,
        -0.013789874501526328,
        -0.12367982417345047,
        1.0
      ],
      "name": "Sketchfab_model"
    },
    {
      "children": [
        2
      ],
      "name": "root"
    },
    {
      "children": [
        3,
        5,
        7,
        9
      ],
      "matrix": [
        1.0,
        0.0,
        0.0,
        0.0,
        0.0,
        2.220446049250313e-16,
        1.0,
        0.0,
        0.0,
        -1.0,
        2.220446049250313e-16,
        0.0,
        0.0,
        0.0,
        0.0,
        1.0
      ],
      "name": "GLTF_SceneRootNode"
    },
    {
      "children": [
        4
      ],
      "matrix": [
        1.8313497304916382,
        0.0,
        0.0,
        0.0,
        0.0,
        -0.21546108050569263,
        1.8186309021236593,
        0.0,
        0.0,
        -1.8186309021236593,
        -0.21546108050569263,
        0.0,
        0.0,
        -0.040128737688064575,
        0.01476548332720995,
        1.0
      ],
      "name": "RTJ4_hands_highRes_0"
    },
    {
      "mesh": 0,
      "name": "Object_4"
    },
    {
      "children": [
        6
      ],
      "matrix": [
        1.8313497304916382,
        0.0,
        0.0,
        0.0,
        0.0,
        -0.21546109453084683,
        1.8186310205050336,
        0.0,
        0.0,
        -1.8186310205050336,
        -0.21546109453084683,
        0.0,
        0.0,
        -0.040128737688064575,
        0.01476548332720995,
        1.0
      ],
      "name": "RTJ4_hands_highRes.001_1"
    },
    {
      "mesh": 1,
      "name": "Object_6"
    },
    {
      "children": [
        8
      ],
      "matrix": [
        0.3937414288520813,
        0.0,
        0.0,
        0.0,
        0.0,
        0.3937414288520813,
        0.0,
        0.0,
        0.0,
        0.0,
        0.3937414288520813,
        0.0,
        1.4038032293319702,
        -1.0476322174072266,
        0.3607102632522583,
        1.0
      ],
      "name": "Torus_2"
    },
    {
      "mesh": 2,
      "name": "Object_8"
    },
    {
      "children": [
        10
      ],
      "matrix": [
        1.8002864445543505,
        -9.996021223719727e-09,
        -0.3358728225469441,
        0.0,
        0.3358728225469375,
        -3.1098456839576905e-07,
        1.8002864445543252,
        0.0,
        -6.686159623196431e-08,
        -1.8313497304916118,
        -3.038763714530239e-07,
        0.0,
        -1.3510794639587402,
        -0.8039385676383972,
        0.22222238779067993,
        1.0
      ],
      "name": "RTJ4_hands_highRes.002_7"
    },
    {
      "mesh": 3,
      "name": "Object_10"
    }
  ],
  "samplers": [
    {
      "magFilter": 9729,
      "minFilter": 9987,
      "wrapS": 10497,
      "wrapT": 10497
    }
  ],
  "scene": 0,
  "scenes": [
    {
      "name": "Sketchfab_Scene",
      "nodes": [
        0
      ]
    }
  ],
  "textures": [
    {
      "sampler": 0,
      "source": 0
    }
  ]
}
